<?xml version="1.0" encoding="UTF-8" standalone="no"?><!DOCTYPE svg PUBLIC "-//W3C//DTD SVG 1.1//EN" "http://www.w3.org/Graphics/SVG/1.1/DTD/svg11.dtd"><svg width="100%" height="100%" viewBox="0 0 3508 2481" version="1.1" xmlns="http://www.w3.org/2000/svg" xmlns:xlink="http://www.w3.org/1999/xlink" xml:space="preserve" xmlns:serif="http://www.serif.com/" style="fill-rule:evenodd;clip-rule:evenodd;stroke-linecap:round;stroke-linejoin:round;stroke-miterlimit:1.5;"><g id="Layer1"><path d="M1377.38,127.072l753.167,-0l-188.292,428.271l-376.583,0l-188.292,-428.271Z" style="fill:#b3704d;"/><clipPath id="_clip1"><path d="M1377.38,127.072l753.167,-0l-188.292,428.271l-376.583,0l-188.292,-428.271Z"/></clipPath><g clip-path="url(#_clip1)"><circle cx="1937.47" cy="207.202" r="54.803" style="fill:#653f2b;"/><circle cx="1684.82" cy="127.072" r="54.803" style="fill:#653f2b;"/><circle cx="2022.3" cy="371.612" r="54.803" style="fill:#653f2b;"/><circle cx="1827.86" cy="341.207" r="54.803" style="fill:#653f2b;"/><circle cx="1432.18" cy="236.678" r="54.803" style="fill:#653f2b;"/><circle cx="1630.02" cy="316.809" r="54.803" style="fill:#653f2b;"/></g><path d="M1377.38,127.072l753.167,-0l-188.292,428.271l-376.583,0l-188.292,-428.271Z" style="fill:none;stroke:#000;stroke-width:20.59px;"/><path d="M1441.63,703.803l-47.606,-0c-40.969,-0 -74.23,-33.262 -74.23,-74.23l-0,-148.46c-0,-40.968 33.261,-74.229 74.23,-74.229l719.875,-0c40.969,-0 74.23,33.261 74.23,74.229l-0,148.46c-0,40.968 -33.261,74.23 -74.23,74.23l-47.606,-0l-0,148.087c145.651,13.24 259.928,135.851 259.928,284.942l-0,930.383c-0,157.92 -128.211,286.13 -286.13,286.13l-572.259,0c-157.92,0 -286.13,-128.21 -286.13,-286.13l-0,-930.383c-0,-149.091 114.277,-271.702 259.928,-284.942l-0,-148.087Z" style="fill:#fff;"/><clipPath id="_clip2"><path d="M1441.63,703.803l-47.606,-0c-40.969,-0 -74.23,-33.262 -74.23,-74.23l-0,-148.46c-0,-40.968 33.261,-74.229 74.23,-74.229l719.875,-0c40.969,-0 74.23,33.261 74.23,74.229l-0,148.46c-0,40.968 -33.261,74.23 -74.23,74.23l-47.606,-0l-0,148.087c145.651,13.24 259.928,135.851 259.928,284.942l-0,930.383c-0,157.92 -128.211,286.13 -286.13,286.13l-572.259,0c-157.92,0 -286.13,-128.21 -286.13,-286.13l-0,-930.383c-0,-149.091 114.277,-271.702 259.928,-284.942l-0,-148.087Z"/></clipPath><g clip-path="url(#_clip2)"><rect x="771.887" y="-66.758" width="2030.6" height="1022.68" style="fill:#c0e0ff;"/><path d="M1102.99,904.21c-66.865,17.401 -101.941,36.633 -101.703,55.761c0.75,60.144 343.777,104.706 765.542,99.451c421.764,-5.255 763.575,-58.35 762.826,-118.493c-0.238,-19.129 -35.783,-37.48 -103.06,-53.21l-1323.61,16.491Z" style="fill:#c0e0ff;"/><path d="M1753.59,951.339c315.356,-2.531 571.663,30.051 572.005,72.715c0.343,42.663 -255.408,79.355 -570.764,81.886c-315.356,2.531 -571.663,-30.052 -572.005,-72.715c-0.343,-42.663 255.408,-79.355 570.764,-81.886Z" style="fill:#ebebeb;"/><path d="M2323.52,1266.05l0.952,0l0,668.345l-0.952,0c-17.197,40.675 -265.81,74.861 -569.813,77.3c-315.355,2.531 -571.662,-30.051 -572.005,-72.714c-0.012,-1.536 0.308,-3.064 0.952,-4.586l-0.952,0l-0,-668.345l0.952,0c-0.644,1.522 -0.964,3.05 -0.952,4.586c0.343,42.663 256.65,75.246 572.005,72.715c304.003,-2.44 552.616,-36.626 569.813,-77.301Z" style="fill:#a56ed0;"/></g><path d="M1441.63,703.803l-47.606,-0c-40.969,-0 -74.23,-33.262 -74.23,-74.23l-0,-148.46c-0,-40.968 33.261,-74.229 74.23,-74.229l719.875,-0c40.969,-0 74.23,33.261 74.23,74.229l-0,148.46c-0,40.968 -33.261,74.23 -74.23,74.23l-47.606,-0l-0,148.087c145.651,13.24 259.928,135.851 259.928,284.942l-0,930.383c-0,157.92 -128.211,286.13 -286.13,286.13l-572.259,0c-157.92,0 -286.13,-128.21 -286.13,-286.13l-0,-930.383c-0,-149.091 114.277,-271.702 259.928,-284.942l-0,-148.087Z" style="fill:none;stroke:#000;stroke-width:16.67px;"/><path d="M2128.05,1386.21l34.944,-6.093c37.023,212.359 -108.832,415.17 -325.775,452.992c-216.944,37.822 -422.824,-103.668 -459.846,-316.027l26.281,-4.582c68.633,42.137 214.833,54.636 377.779,26.228c162.946,-28.408 296.292,-89.643 346.617,-152.518Z"/><clipPath id="_clip3"><path d="M2128.05,1386.21l34.944,-6.093c37.023,212.359 -108.832,415.17 -325.775,452.992c-216.944,37.822 -422.824,-103.668 -459.846,-316.027l26.281,-4.582c68.633,42.137 214.833,54.636 377.779,26.228c162.946,-28.408 296.292,-89.643 346.617,-152.518Z"/></clipPath><g clip-path="url(#_clip3)"><path d="M2105.3,1437.28c-6.719,-37.669 -42.757,-62.797 -80.426,-56.078l-535.454,95.512c-37.669,6.719 -62.796,42.756 -56.077,80.426l7.465,41.85c6.719,37.669 42.757,62.796 80.426,56.077l535.454,-95.511c37.669,-6.719 62.796,-42.757 56.077,-80.426l-7.465,-41.85Z" style="fill:#fff;"/><path d="M1813.12,1666.97c125.886,-25.148 237.974,3.915 250.148,64.859c12.175,60.945 -80.144,130.841 -206.03,155.989c-125.886,25.148 -237.973,-3.915 -250.148,-64.86c-12.175,-60.945 80.144,-130.841 206.03,-155.988Z" style="fill:#b6000b;"/></g></g></svg>